ISO-10303-21;
HEADER;
FILE_DESCRIPTION(('ViewDefinition [CoordinationView]'),'2;1');
FILE_NAME('','2026-06-03T20:28:39',(''),(''),'IfcOpenShell 0.8.5-1c5b825','IfcOpenShell 0.8.5-1c5b825','');
FILE_SCHEMA(('IFC4'));
ENDSEC;
DATA;
#1=IFCSIUNIT(*,.LENGTHUNIT.,$,.METRE.);
#2=IFCSIUNIT(*,.AREAUNIT.,$,.SQUARE_METRE.);
#3=IFCSIUNIT(*,.VOLUMEUNIT.,$,.CUBIC_METRE.);
#4=IFCUNITASSIGNMENT((#1,#2,#3));
#5=IFCCARTESIANPOINT((0.,0.,0.));
#6=IFCDIRECTION((0.,0.,1.));
#7=IFCDIRECTION((1.,0.,0.));
#8=IFCAXIS2PLACEMENT3D(#5,#6,#7);
#9=IFCGEOMETRICREPRESENTATIONCONTEXT($,'Model',3,1.0000000000000001E-05,#8,$);
#10=IFCGEOMETRICREPRESENTATIONSUBCONTEXT('Body','Model',*,*,*,*,#9,$,.MODEL_VIEW.,$);
#11=IFCPROJECT('2TPoG5sqX8Kf11928j4vMn',$,'InfoBhoomi IFC Building Agent Project','Agent-generated IFC4 cadastral building artifact.',$,$,$,(#9),#4);
#12=IFCPROJECTEDCRS('Local engineering CRS - WGS84 anchor','Local metre grid anchored to WGS84 parcel origin.','WGS84','MSL','Local tangent plane','InfoBhoomi demo',#1);
#13=IFCMAPCONVERSION(#9,#12,0.,0.,10.,1.,0.,1.);
#14=IFCCARTESIANPOINT((0.,0.,0.));
#15=IFCDIRECTION((0.,0.,1.));
#16=IFCDIRECTION((1.,0.,0.));
#17=IFCAXIS2PLACEMENT3D(#14,#15,#16);
#18=IFCLOCALPLACEMENT($,#17);
#19=IFCSITE('1bnB64kDLD$AZ8wlUVDX6H',$,'InfoBhoomi Building Coordinate Reference','Coordinate reference site only. No land parcel geometry is included in this IFC.','DB_PARCEL_REF_12506',#18,$,$,.ELEMENT.,(6,48,52,128000),(81,0,6,156000),10.,$,$);
#20=IFCCARTESIANPOINT((16.,16.,0.050000000000000003));
#21=IFCDIRECTION((0.,0.,1.));
#22=IFCDIRECTION((1.,0.,0.));
#23=IFCAXIS2PLACEMENT3D(#20,#21,#22);
#24=IFCLOCALPLACEMENT(#18,#23);
#25=IFCBUILDING('1p0EFDGdv7jgc4$Eg3p_fc',$,'Parcel 002 Four Storey Test Building','Agent-generated IFC building for 3D cadastre testing.','CADASTRAL_BUILDING',#24,$,$,.ELEMENT.,$,$,$);
#26=IFCCARTESIANPOINT((0.,0.,0.));
#27=IFCDIRECTION((0.,0.,1.));
#28=IFCDIRECTION((1.,0.,0.));
#29=IFCAXIS2PLACEMENT3D(#26,#27,#28);
#30=IFCLOCALPLACEMENT(#24,#29);
#31=IFCBUILDINGSTOREY('3CJk1qrFb1qOysz5LJZERK',$,'Level 1',$,$,#30,$,$,.ELEMENT.,0.);
#32=IFCCARTESIANPOINT((0.,0.,3.2000000000000002));
#33=IFCDIRECTION((0.,0.,1.));
#34=IFCDIRECTION((1.,0.,0.));
#35=IFCAXIS2PLACEMENT3D(#32,#33,#34);
#36=IFCLOCALPLACEMENT(#24,#35);
#37=IFCBUILDINGSTOREY('1irpoHMIX3tAaV_6RCXsAm',$,'Level 2',$,$,#36,$,$,.ELEMENT.,3.2000000000000002);
#38=IFCCARTESIANPOINT((0.,0.,6.4000000000000004));
#39=IFCDIRECTION((0.,0.,1.));
#40=IFCDIRECTION((1.,0.,0.));
#41=IFCAXIS2PLACEMENT3D(#38,#39,#40);
#42=IFCLOCALPLACEMENT(#24,#41);
#43=IFCBUILDINGSTOREY('3egDcNupr5egiTjK$exDt6',$,'Level 3',$,$,#42,$,$,.ELEMENT.,6.4000000000000004);
#44=IFCCARTESIANPOINT((0.,0.,9.6000000000000014));
#45=IFCDIRECTION((0.,0.,1.));
#46=IFCDIRECTION((1.,0.,0.));
#47=IFCAXIS2PLACEMENT3D(#44,#45,#46);
#48=IFCLOCALPLACEMENT(#24,#47);
#49=IFCBUILDINGSTOREY('0U2to1ng9CAgtdCQjYM8RQ',$,'Level 4',$,$,#48,$,$,.ELEMENT.,9.6000000000000014);
#50=IFCRELAGGREGATES('1_b8tJ4yT3qvCCuNom7j0Z',$,$,$,#11,(#19));
#51=IFCRELAGGREGATES('3AwrFUzmj4ne6c78OCthI0',$,$,$,#19,(#25));
#52=IFCRELAGGREGATES('3QiJJRW2rFdhecRsigdTTU',$,$,$,#25,(#31,#37,#43,#49));
#53=IFCCARTESIANPOINT((13.,10.,-0.050000000000000003));
#54=IFCDIRECTION((0.,0.,1.));
#55=IFCDIRECTION((1.,0.,0.));
#56=IFCAXIS2PLACEMENT3D(#53,#54,#55);
#57=IFCLOCALPLACEMENT(#30,#56);
#58=IFCRECTANGLEPROFILEDEF(.AREA.,$,$,26.,20.);
#59=IFCCARTESIANPOINT((0.,0.,0.));
#60=IFCDIRECTION((0.,0.,1.));
#61=IFCDIRECTION((1.,0.,0.));
#62=IFCAXIS2PLACEMENT3D(#59,#60,#61);
#63=IFCDIRECTION((0.,0.,1.));
#64=IFCEXTRUDEDAREASOLID(#58,#62,#63,0.14999999999999999);
#65=IFCSHAPEREPRESENTATION(#10,'Body','SweptSolid',(#64));
#66=IFCPRODUCTDEFINITIONSHAPE($,$,(#65));
#67=IFCSLAB('3hjNBmQ$1DV8p6XXSP4k7b',$,'Level 1 Floor Slab',$,'FLOOR_SLAB',#57,#66,'SLAB-L1',.FLOOR.);
#68=IFCCARTESIANPOINT((13.,20.125,0.));
#69=IFCDIRECTION((0.,0.,1.));
#70=IFCDIRECTION((1.,0.,0.));
#71=IFCAXIS2PLACEMENT3D(#68,#69,#70);
#72=IFCLOCALPLACEMENT(#30,#71);
#73=IFCRECTANGLEPROFILEDEF(.AREA.,$,$,26.,0.25);
#74=IFCCARTESIANPOINT((0.,0.,0.));
#75=IFCDIRECTION((0.,0.,1.));
#76=IFCDIRECTION((1.,0.,0.));
#77=IFCAXIS2PLACEMENT3D(#74,#75,#76);
#78=IFCDIRECTION((0.,0.,1.));
#79=IFCEXTRUDEDAREASOLID(#73,#77,#78,3.);
#80=IFCSHAPEREPRESENTATION(#10,'Body','SweptSolid',(#79));
#81=IFCPRODUCTDEFINITIONSHAPE($,$,(#80));
#82=IFCWALL('1gGp_lu0r0XgSVrQcnZV4x',$,'Level 1 North Wall',$,'EXTERNAL_WALL',#72,#81,'WALL-L1-NORTH',.STANDARD.);
#83=IFCCARTESIANPOINT((13.,-0.125,0.));
#84=IFCDIRECTION((0.,0.,1.));
#85=IFCDIRECTION((1.,0.,0.));
#86=IFCAXIS2PLACEMENT3D(#83,#84,#85);
#87=IFCLOCALPLACEMENT(#30,#86);
#88=IFCRECTANGLEPROFILEDEF(.AREA.,$,$,26.,0.25);
#89=IFCCARTESIANPOINT((0.,0.,0.));
#90=IFCDIRECTION((0.,0.,1.));
#91=IFCDIRECTION((1.,0.,0.));
#92=IFCAXIS2PLACEMENT3D(#89,#90,#91);
#93=IFCDIRECTION((0.,0.,1.));
#94=IFCEXTRUDEDAREASOLID(#88,#92,#93,3.);
#95=IFCSHAPEREPRESENTATION(#10,'Body','SweptSolid',(#94));
#96=IFCPRODUCTDEFINITIONSHAPE($,$,(#95));
#97=IFCWALL('2QVxzE0ZvBJwm0LBHUNSrG',$,'Level 1 South Wall',$,'EXTERNAL_WALL',#87,#96,'WALL-L1-SOUTH',.STANDARD.);
#98=IFCCARTESIANPOINT((26.125,10.,0.));
#99=IFCDIRECTION((0.,0.,1.));
#100=IFCDIRECTION((1.,0.,0.));
#101=IFCAXIS2PLACEMENT3D(#98,#99,#100);
#102=IFCLOCALPLACEMENT(#30,#101);
#103=IFCRECTANGLEPROFILEDEF(.AREA.,$,$,0.25,20.);
#104=IFCCARTESIANPOINT((0.,0.,0.));
#105=IFCDIRECTION((0.,0.,1.));
#106=IFCDIRECTION((1.,0.,0.));
#107=IFCAXIS2PLACEMENT3D(#104,#105,#106);
#108=IFCDIRECTION((0.,0.,1.));
#109=IFCEXTRUDEDAREASOLID(#103,#107,#108,3.);
#110=IFCSHAPEREPRESENTATION(#10,'Body','SweptSolid',(#109));
#111=IFCPRODUCTDEFINITIONSHAPE($,$,(#110));
#112=IFCWALL('11NYGsfgr5hu64O_RgpLeN',$,'Level 1 East Wall',$,'EXTERNAL_WALL',#102,#111,'WALL-L1-EAST',.STANDARD.);
#113=IFCCARTESIANPOINT((-0.125,10.,0.));
#114=IFCDIRECTION((0.,0.,1.));
#115=IFCDIRECTION((1.,0.,0.));
#116=IFCAXIS2PLACEMENT3D(#113,#114,#115);
#117=IFCLOCALPLACEMENT(#30,#116);
#118=IFCRECTANGLEPROFILEDEF(.AREA.,$,$,0.25,20.);
#119=IFCCARTESIANPOINT((0.,0.,0.));
#120=IFCDIRECTION((0.,0.,1.));
#121=IFCDIRECTION((1.,0.,0.));
#122=IFCAXIS2PLACEMENT3D(#119,#120,#121);
#123=IFCDIRECTION((0.,0.,1.));
#124=IFCEXTRUDEDAREASOLID(#118,#122,#123,3.);
#125=IFCSHAPEREPRESENTATION(#10,'Body','SweptSolid',(#124));
#126=IFCPRODUCTDEFINITIONSHAPE($,$,(#125));
#127=IFCWALL('0HA7wnIU1DghSxUnHMgfUl',$,'Level 1 West Wall',$,'EXTERNAL_WALL',#117,#126,'WALL-L1-WEST',.STANDARD.);
#128=IFCCARTESIANPOINT((4.333333333333333,10.,0.));
#129=IFCDIRECTION((0.,0.,1.));
#130=IFCDIRECTION((1.,0.,0.));
#131=IFCAXIS2PLACEMENT3D(#128,#129,#130);
#132=IFCLOCALPLACEMENT(#30,#131);
#133=IFCRECTANGLEPROFILEDEF(.AREA.,$,$,8.6666666666666661,20.);
#134=IFCCARTESIANPOINT((0.,0.,0.));
#135=IFCDIRECTION((0.,0.,1.));
#136=IFCDIRECTION((1.,0.,0.));
#137=IFCAXIS2PLACEMENT3D(#134,#135,#136);
#138=IFCDIRECTION((0.,0.,1.));
#139=IFCEXTRUDEDAREASOLID(#133,#137,#138,3.);
#140=IFCSHAPEREPRESENTATION(#10,'Body','SweptSolid',(#139));
#141=IFCPRODUCTDEFINITIONSHAPE($,$,(#140));
#142=IFCSPACE('3cNbrutjLBn8bzNdcB5n$Y',$,'Unit 101','Cadastral apartment unit 1 on level 1.','APARTMENT_UNIT',#132,#141,'Apartment Unit 101',.ELEMENT.,.INTERNAL.,$);
#143=IFCPROPERTYSINGLEVALUE('database_land_parcel_id',$,IFCTEXT('12506'),$);
#144=IFCPROPERTYSINGLEVALUE('storey',$,IFCINTEGER(1),$);
#145=IFCPROPERTYSINGLEVALUE('unit_index',$,IFCINTEGER(1),$);
#146=IFCPROPERTYSINGLEVALUE('local_bbox_m',$,IFCTEXT('[16.0, 16.0, 0.0, 24.666666666666664, 36.0, 3.0]'),$);
#147=IFCPROPERTYSINGLEVALUE('area_m2',$,IFCREAL(173.33333333333331),$);
#148=IFCPROPERTYSINGLEVALUE('volume_m3',$,IFCREAL(520.),$);
#149=IFCPROPERTYSET('265AEQuwn2ox0uI5vpF_bg',$,'Pset_InfoBhoomiUnit',$,(#143,#144,#145,#146,#147,#148));
#150=IFCRELDEFINESBYPROPERTIES('2wWqafgGzBABRVlpxzzHKM',$,$,$,(#142),#149);
#151=IFCCARTESIANPOINT((13.,10.,0.));
#152=IFCDIRECTION((0.,0.,1.));
#153=IFCDIRECTION((1.,0.,0.));
#154=IFCAXIS2PLACEMENT3D(#151,#152,#153);
#155=IFCLOCALPLACEMENT(#30,#154);
#156=IFCRECTANGLEPROFILEDEF(.AREA.,$,$,8.6666666666666661,20.);
#157=IFCCARTESIANPOINT((0.,0.,0.));
#158=IFCDIRECTION((0.,0.,1.));
#159=IFCDIRECTION((1.,0.,0.));
#160=IFCAXIS2PLACEMENT3D(#157,#158,#159);
#161=IFCDIRECTION((0.,0.,1.));
#162=IFCEXTRUDEDAREASOLID(#156,#160,#161,3.);
#163=IFCSHAPEREPRESENTATION(#10,'Body','SweptSolid',(#162));
#164=IFCPRODUCTDEFINITIONSHAPE($,$,(#163));
#165=IFCSPACE('1UUtdByar2ogxJ6YQANdx_',$,'Unit 102','Cadastral apartment unit 2 on level 1.','APARTMENT_UNIT',#155,#164,'Apartment Unit 102',.ELEMENT.,.INTERNAL.,$);
#166=IFCPROPERTYSINGLEVALUE('database_land_parcel_id',$,IFCTEXT('12506'),$);
#167=IFCPROPERTYSINGLEVALUE('storey',$,IFCINTEGER(1),$);
#168=IFCPROPERTYSINGLEVALUE('unit_index',$,IFCINTEGER(2),$);
#169=IFCPROPERTYSINGLEVALUE('local_bbox_m',$,IFCTEXT('[24.666666666666664, 16.0, 0.0, 33.33333333333333, 36.0, 3.0]'),$);
#170=IFCPROPERTYSINGLEVALUE('area_m2',$,IFCREAL(173.33333333333331),$);
#171=IFCPROPERTYSINGLEVALUE('volume_m3',$,IFCREAL(520.),$);
#172=IFCPROPERTYSET('0rQXFNiSbCCeirdWkFCpPY',$,'Pset_InfoBhoomiUnit',$,(#166,#167,#168,#169,#170,#171));
#173=IFCRELDEFINESBYPROPERTIES('1KStYarcn81RlTs6Gf3s$V',$,$,$,(#165),#172);
#174=IFCCARTESIANPOINT((21.666666666666664,10.,0.));
#175=IFCDIRECTION((0.,0.,1.));
#176=IFCDIRECTION((1.,0.,0.));
#177=IFCAXIS2PLACEMENT3D(#174,#175,#176);
#178=IFCLOCALPLACEMENT(#30,#177);
#179=IFCRECTANGLEPROFILEDEF(.AREA.,$,$,8.6666666666666661,20.);
#180=IFCCARTESIANPOINT((0.,0.,0.));
#181=IFCDIRECTION((0.,0.,1.));
#182=IFCDIRECTION((1.,0.,0.));
#183=IFCAXIS2PLACEMENT3D(#180,#181,#182);
#184=IFCDIRECTION((0.,0.,1.));
#185=IFCEXTRUDEDAREASOLID(#179,#183,#184,3.);
#186=IFCSHAPEREPRESENTATION(#10,'Body','SweptSolid',(#185));
#187=IFCPRODUCTDEFINITIONSHAPE($,$,(#186));
#188=IFCSPACE('1PHviM_pLDaeQR66gRzir_',$,'Unit 103','Cadastral apartment unit 3 on level 1.','APARTMENT_UNIT',#178,#187,'Apartment Unit 103',.ELEMENT.,.INTERNAL.,$);
#189=IFCPROPERTYSINGLEVALUE('database_land_parcel_id',$,IFCTEXT('12506'),$);
#190=IFCPROPERTYSINGLEVALUE('storey',$,IFCINTEGER(1),$);
#191=IFCPROPERTYSINGLEVALUE('unit_index',$,IFCINTEGER(3),$);
#192=IFCPROPERTYSINGLEVALUE('local_bbox_m',$,IFCTEXT('[33.33333333333333, 16.0, 0.0, 41.99999999999999, 36.0, 3.0]'),$);
#193=IFCPROPERTYSINGLEVALUE('area_m2',$,IFCREAL(173.33333333333331),$);
#194=IFCPROPERTYSINGLEVALUE('volume_m3',$,IFCREAL(520.),$);
#195=IFCPROPERTYSET('2g3ztAylP7c8iToOwj8iPQ',$,'Pset_InfoBhoomiUnit',$,(#189,#190,#191,#192,#193,#194));
#196=IFCRELDEFINESBYPROPERTIES('1l3JekHoX75RuhNpRRJ2_z',$,$,$,(#188),#195);
#197=IFCRELCONTAINEDINSPATIALSTRUCTURE('0UN1inymf5UPUvXj_GcDPd',$,$,$,(#67,#82,#97,#112,#127,#142,#165,#188),#31);
#198=IFCCARTESIANPOINT((13.,10.,-0.050000000000000003));
#199=IFCDIRECTION((0.,0.,1.));
#200=IFCDIRECTION((1.,0.,0.));
#201=IFCAXIS2PLACEMENT3D(#198,#199,#200);
#202=IFCLOCALPLACEMENT(#36,#201);
#203=IFCRECTANGLEPROFILEDEF(.AREA.,$,$,26.,20.);
#204=IFCCARTESIANPOINT((0.,0.,0.));
#205=IFCDIRECTION((0.,0.,1.));
#206=IFCDIRECTION((1.,0.,0.));
#207=IFCAXIS2PLACEMENT3D(#204,#205,#206);
#208=IFCDIRECTION((0.,0.,1.));
#209=IFCEXTRUDEDAREASOLID(#203,#207,#208,0.14999999999999999);
#210=IFCSHAPEREPRESENTATION(#10,'Body','SweptSolid',(#209));
#211=IFCPRODUCTDEFINITIONSHAPE($,$,(#210));
#212=IFCSLAB('3OruJgHpf6RhfHZh8pWFlD',$,'Level 2 Floor Slab',$,'FLOOR_SLAB',#202,#211,'SLAB-L2',.FLOOR.);
#213=IFCCARTESIANPOINT((13.,20.125,0.));
#214=IFCDIRECTION((0.,0.,1.));
#215=IFCDIRECTION((1.,0.,0.));
#216=IFCAXIS2PLACEMENT3D(#213,#214,#215);
#217=IFCLOCALPLACEMENT(#36,#216);
#218=IFCRECTANGLEPROFILEDEF(.AREA.,$,$,26.,0.25);
#219=IFCCARTESIANPOINT((0.,0.,0.));
#220=IFCDIRECTION((0.,0.,1.));
#221=IFCDIRECTION((1.,0.,0.));
#222=IFCAXIS2PLACEMENT3D(#219,#220,#221);
#223=IFCDIRECTION((0.,0.,1.));
#224=IFCEXTRUDEDAREASOLID(#218,#222,#223,3.);
#225=IFCSHAPEREPRESENTATION(#10,'Body','SweptSolid',(#224));
#226=IFCPRODUCTDEFINITIONSHAPE($,$,(#225));
#227=IFCWALL('1c5RrPkHX2ufMRJfxzyp9B',$,'Level 2 North Wall',$,'EXTERNAL_WALL',#217,#226,'WALL-L2-NORTH',.STANDARD.);
#228=IFCCARTESIANPOINT((13.,-0.125,0.));
#229=IFCDIRECTION((0.,0.,1.));
#230=IFCDIRECTION((1.,0.,0.));
#231=IFCAXIS2PLACEMENT3D(#228,#229,#230);
#232=IFCLOCALPLACEMENT(#36,#231);
#233=IFCRECTANGLEPROFILEDEF(.AREA.,$,$,26.,0.25);
#234=IFCCARTESIANPOINT((0.,0.,0.));
#235=IFCDIRECTION((0.,0.,1.));
#236=IFCDIRECTION((1.,0.,0.));
#237=IFCAXIS2PLACEMENT3D(#234,#235,#236);
#238=IFCDIRECTION((0.,0.,1.));
#239=IFCEXTRUDEDAREASOLID(#233,#237,#238,3.);
#240=IFCSHAPEREPRESENTATION(#10,'Body','SweptSolid',(#239));
#241=IFCPRODUCTDEFINITIONSHAPE($,$,(#240));
#242=IFCWALL('0OYTFoDAT7MeYLSH6JO0A0',$,'Level 2 South Wall',$,'EXTERNAL_WALL',#232,#241,'WALL-L2-SOUTH',.STANDARD.);
#243=IFCCARTESIANPOINT((26.125,10.,0.));
#244=IFCDIRECTION((0.,0.,1.));
#245=IFCDIRECTION((1.,0.,0.));
#246=IFCAXIS2PLACEMENT3D(#243,#244,#245);
#247=IFCLOCALPLACEMENT(#36,#246);
#248=IFCRECTANGLEPROFILEDEF(.AREA.,$,$,0.25,20.);
#249=IFCCARTESIANPOINT((0.,0.,0.));
#250=IFCDIRECTION((0.,0.,1.));
#251=IFCDIRECTION((1.,0.,0.));
#252=IFCAXIS2PLACEMENT3D(#249,#250,#251);
#253=IFCDIRECTION((0.,0.,1.));
#254=IFCEXTRUDEDAREASOLID(#248,#252,#253,3.);
#255=IFCSHAPEREPRESENTATION(#10,'Body','SweptSolid',(#254));
#256=IFCPRODUCTDEFINITIONSHAPE($,$,(#255));
#257=IFCWALL('0lF8XNZJn34ub4IizF379Q',$,'Level 2 East Wall',$,'EXTERNAL_WALL',#247,#256,'WALL-L2-EAST',.STANDARD.);
#258=IFCCARTESIANPOINT((-0.125,10.,0.));
#259=IFCDIRECTION((0.,0.,1.));
#260=IFCDIRECTION((1.,0.,0.));
#261=IFCAXIS2PLACEMENT3D(#258,#259,#260);
#262=IFCLOCALPLACEMENT(#36,#261);
#263=IFCRECTANGLEPROFILEDEF(.AREA.,$,$,0.25,20.);
#264=IFCCARTESIANPOINT((0.,0.,0.));
#265=IFCDIRECTION((0.,0.,1.));
#266=IFCDIRECTION((1.,0.,0.));
#267=IFCAXIS2PLACEMENT3D(#264,#265,#266);
#268=IFCDIRECTION((0.,0.,1.));
#269=IFCEXTRUDEDAREASOLID(#263,#267,#268,3.);
#270=IFCSHAPEREPRESENTATION(#10,'Body','SweptSolid',(#269));
#271=IFCPRODUCTDEFINITIONSHAPE($,$,(#270));
#272=IFCWALL('0FJ_OsW$f4AwIuWcw1Zs2X',$,'Level 2 West Wall',$,'EXTERNAL_WALL',#262,#271,'WALL-L2-WEST',.STANDARD.);
#273=IFCCARTESIANPOINT((4.333333333333333,10.,0.));
#274=IFCDIRECTION((0.,0.,1.));
#275=IFCDIRECTION((1.,0.,0.));
#276=IFCAXIS2PLACEMENT3D(#273,#274,#275);
#277=IFCLOCALPLACEMENT(#36,#276);
#278=IFCRECTANGLEPROFILEDEF(.AREA.,$,$,8.6666666666666661,20.);
#279=IFCCARTESIANPOINT((0.,0.,0.));
#280=IFCDIRECTION((0.,0.,1.));
#281=IFCDIRECTION((1.,0.,0.));
#282=IFCAXIS2PLACEMENT3D(#279,#280,#281);
#283=IFCDIRECTION((0.,0.,1.));
#284=IFCEXTRUDEDAREASOLID(#278,#282,#283,3.);
#285=IFCSHAPEREPRESENTATION(#10,'Body','SweptSolid',(#284));
#286=IFCPRODUCTDEFINITIONSHAPE($,$,(#285));
#287=IFCSPACE('3VyCesgyD2E8g787a7UiRk',$,'Unit 201','Cadastral apartment unit 1 on level 2.','APARTMENT_UNIT',#277,#286,'Apartment Unit 201',.ELEMENT.,.INTERNAL.,$);
#288=IFCPROPERTYSINGLEVALUE('database_land_parcel_id',$,IFCTEXT('12506'),$);
#289=IFCPROPERTYSINGLEVALUE('storey',$,IFCINTEGER(2),$);
#290=IFCPROPERTYSINGLEVALUE('unit_index',$,IFCINTEGER(1),$);
#291=IFCPROPERTYSINGLEVALUE('local_bbox_m',$,IFCTEXT('[16.0, 16.0, 3.2, 24.666666666666664, 36.0, 6.2]'),$);
#292=IFCPROPERTYSINGLEVALUE('area_m2',$,IFCREAL(173.33333333333331),$);
#293=IFCPROPERTYSINGLEVALUE('volume_m3',$,IFCREAL(520.),$);
#294=IFCPROPERTYSET('0MDYK_genEp95TvqWjQ7R_',$,'Pset_InfoBhoomiUnit',$,(#288,#289,#290,#291,#292,#293));
#295=IFCRELDEFINESBYPROPERTIES('1xHQg7JbP6xwarDGicBV38',$,$,$,(#287),#294);
#296=IFCCARTESIANPOINT((13.,10.,0.));
#297=IFCDIRECTION((0.,0.,1.));
#298=IFCDIRECTION((1.,0.,0.));
#299=IFCAXIS2PLACEMENT3D(#296,#297,#298);
#300=IFCLOCALPLACEMENT(#36,#299);
#301=IFCRECTANGLEPROFILEDEF(.AREA.,$,$,8.6666666666666661,20.);
#302=IFCCARTESIANPOINT((0.,0.,0.));
#303=IFCDIRECTION((0.,0.,1.));
#304=IFCDIRECTION((1.,0.,0.));
#305=IFCAXIS2PLACEMENT3D(#302,#303,#304);
#306=IFCDIRECTION((0.,0.,1.));
#307=IFCEXTRUDEDAREASOLID(#301,#305,#306,3.);
#308=IFCSHAPEREPRESENTATION(#10,'Body','SweptSolid',(#307));
#309=IFCPRODUCTDEFINITIONSHAPE($,$,(#308));
#310=IFCSPACE('2SWIxFarn7pg864uZkHFPp',$,'Unit 202','Cadastral apartment unit 2 on level 2.','APARTMENT_UNIT',#300,#309,'Apartment Unit 202',.ELEMENT.,.INTERNAL.,$);
#311=IFCPROPERTYSINGLEVALUE('database_land_parcel_id',$,IFCTEXT('12506'),$);
#312=IFCPROPERTYSINGLEVALUE('storey',$,IFCINTEGER(2),$);
#313=IFCPROPERTYSINGLEVALUE('unit_index',$,IFCINTEGER(2),$);
#314=IFCPROPERTYSINGLEVALUE('local_bbox_m',$,IFCTEXT('[24.666666666666664, 16.0, 3.2, 33.33333333333333, 36.0, 6.2]'),$);
#315=IFCPROPERTYSINGLEVALUE('area_m2',$,IFCREAL(173.33333333333331),$);
#316=IFCPROPERTYSINGLEVALUE('volume_m3',$,IFCREAL(520.),$);
#317=IFCPROPERTYSET('1Yy$1K4En5rwSzltCz9B5_',$,'Pset_InfoBhoomiUnit',$,(#311,#312,#313,#314,#315,#316));
#318=IFCRELDEFINESBYPROPERTIES('0KP2x$KM5BCPt2QZNWESsJ',$,$,$,(#310),#317);
#319=IFCCARTESIANPOINT((21.666666666666664,10.,0.));
#320=IFCDIRECTION((0.,0.,1.));
#321=IFCDIRECTION((1.,0.,0.));
#322=IFCAXIS2PLACEMENT3D(#319,#320,#321);
#323=IFCLOCALPLACEMENT(#36,#322);
#324=IFCRECTANGLEPROFILEDEF(.AREA.,$,$,8.6666666666666661,20.);
#325=IFCCARTESIANPOINT((0.,0.,0.));
#326=IFCDIRECTION((0.,0.,1.));
#327=IFCDIRECTION((1.,0.,0.));
#328=IFCAXIS2PLACEMENT3D(#325,#326,#327);
#329=IFCDIRECTION((0.,0.,1.));
#330=IFCEXTRUDEDAREASOLID(#324,#328,#329,3.);
#331=IFCSHAPEREPRESENTATION(#10,'Body','SweptSolid',(#330));
#332=IFCPRODUCTDEFINITIONSHAPE($,$,(#331));
#333=IFCSPACE('3ZPcdd5uHB_uxNUFZ7AiSS',$,'Unit 203','Cadastral apartment unit 3 on level 2.','APARTMENT_UNIT',#323,#332,'Apartment Unit 203',.ELEMENT.,.INTERNAL.,$);
#334=IFCPROPERTYSINGLEVALUE('database_land_parcel_id',$,IFCTEXT('12506'),$);
#335=IFCPROPERTYSINGLEVALUE('storey',$,IFCINTEGER(2),$);
#336=IFCPROPERTYSINGLEVALUE('unit_index',$,IFCINTEGER(3),$);
#337=IFCPROPERTYSINGLEVALUE('local_bbox_m',$,IFCTEXT('[33.33333333333333, 16.0, 3.2, 41.99999999999999, 36.0, 6.2]'),$);
#338=IFCPROPERTYSINGLEVALUE('area_m2',$,IFCREAL(173.33333333333331),$);
#339=IFCPROPERTYSINGLEVALUE('volume_m3',$,IFCREAL(520.),$);
#340=IFCPROPERTYSET('2p$7UKwjP4n8x9hiMkkxhX',$,'Pset_InfoBhoomiUnit',$,(#334,#335,#336,#337,#338,#339));
#341=IFCRELDEFINESBYPROPERTIES('3AeCWpEyT3UuuuhxMx58ZS',$,$,$,(#333),#340);
#342=IFCRELCONTAINEDINSPATIALSTRUCTURE('3OV$$oyhfEkAFS9OU$4tun',$,$,$,(#212,#227,#242,#257,#272,#287,#310,#333),#37);
#343=IFCCARTESIANPOINT((13.,10.,-0.050000000000000003));
#344=IFCDIRECTION((0.,0.,1.));
#345=IFCDIRECTION((1.,0.,0.));
#346=IFCAXIS2PLACEMENT3D(#343,#344,#345);
#347=IFCLOCALPLACEMENT(#42,#346);
#348=IFCRECTANGLEPROFILEDEF(.AREA.,$,$,26.,20.);
#349=IFCCARTESIANPOINT((0.,0.,0.));
#350=IFCDIRECTION((0.,0.,1.));
#351=IFCDIRECTION((1.,0.,0.));
#352=IFCAXIS2PLACEMENT3D(#349,#350,#351);
#353=IFCDIRECTION((0.,0.,1.));
#354=IFCEXTRUDEDAREASOLID(#348,#352,#353,0.14999999999999999);
#355=IFCSHAPEREPRESENTATION(#10,'Body','SweptSolid',(#354));
#356=IFCPRODUCTDEFINITIONSHAPE($,$,(#355));
#357=IFCSLAB('0PAQUxXzHDDBkqoTgI_11D',$,'Level 3 Floor Slab',$,'FLOOR_SLAB',#347,#356,'SLAB-L3',.FLOOR.);
#358=IFCCARTESIANPOINT((13.,20.125,0.));
#359=IFCDIRECTION((0.,0.,1.));
#360=IFCDIRECTION((1.,0.,0.));
#361=IFCAXIS2PLACEMENT3D(#358,#359,#360);
#362=IFCLOCALPLACEMENT(#42,#361);
#363=IFCRECTANGLEPROFILEDEF(.AREA.,$,$,26.,0.25);
#364=IFCCARTESIANPOINT((0.,0.,0.));
#365=IFCDIRECTION((0.,0.,1.));
#366=IFCDIRECTION((1.,0.,0.));
#367=IFCAXIS2PLACEMENT3D(#364,#365,#366);
#368=IFCDIRECTION((0.,0.,1.));
#369=IFCEXTRUDEDAREASOLID(#363,#367,#368,3.);
#370=IFCSHAPEREPRESENTATION(#10,'Body','SweptSolid',(#369));
#371=IFCPRODUCTDEFINITIONSHAPE($,$,(#370));
#372=IFCWALL('3zQ9jfra1EyBz1E$l3STcm',$,'Level 3 North Wall',$,'EXTERNAL_WALL',#362,#371,'WALL-L3-NORTH',.STANDARD.);
#373=IFCCARTESIANPOINT((13.,-0.125,0.));
#374=IFCDIRECTION((0.,0.,1.));
#375=IFCDIRECTION((1.,0.,0.));
#376=IFCAXIS2PLACEMENT3D(#373,#374,#375);
#377=IFCLOCALPLACEMENT(#42,#376);
#378=IFCRECTANGLEPROFILEDEF(.AREA.,$,$,26.,0.25);
#379=IFCCARTESIANPOINT((0.,0.,0.));
#380=IFCDIRECTION((0.,0.,1.));
#381=IFCDIRECTION((1.,0.,0.));
#382=IFCAXIS2PLACEMENT3D(#379,#380,#381);
#383=IFCDIRECTION((0.,0.,1.));
#384=IFCEXTRUDEDAREASOLID(#378,#382,#383,3.);
#385=IFCSHAPEREPRESENTATION(#10,'Body','SweptSolid',(#384));
#386=IFCPRODUCTDEFINITIONSHAPE($,$,(#385));
#387=IFCWALL('3mgXcrItvEGBiHY5ep94mG',$,'Level 3 South Wall',$,'EXTERNAL_WALL',#377,#386,'WALL-L3-SOUTH',.STANDARD.);
#388=IFCCARTESIANPOINT((26.125,10.,0.));
#389=IFCDIRECTION((0.,0.,1.));
#390=IFCDIRECTION((1.,0.,0.));
#391=IFCAXIS2PLACEMENT3D(#388,#389,#390);
#392=IFCLOCALPLACEMENT(#42,#391);
#393=IFCRECTANGLEPROFILEDEF(.AREA.,$,$,0.25,20.);
#394=IFCCARTESIANPOINT((0.,0.,0.));
#395=IFCDIRECTION((0.,0.,1.));
#396=IFCDIRECTION((1.,0.,0.));
#397=IFCAXIS2PLACEMENT3D(#394,#395,#396);
#398=IFCDIRECTION((0.,0.,1.));
#399=IFCEXTRUDEDAREASOLID(#393,#397,#398,3.);
#400=IFCSHAPEREPRESENTATION(#10,'Body','SweptSolid',(#399));
#401=IFCPRODUCTDEFINITIONSHAPE($,$,(#400));
#402=IFCWALL('1IBFh6aG9CSgsYDZL1$Vsk',$,'Level 3 East Wall',$,'EXTERNAL_WALL',#392,#401,'WALL-L3-EAST',.STANDARD.);
#403=IFCCARTESIANPOINT((-0.125,10.,0.));
#404=IFCDIRECTION((0.,0.,1.));
#405=IFCDIRECTION((1.,0.,0.));
#406=IFCAXIS2PLACEMENT3D(#403,#404,#405);
#407=IFCLOCALPLACEMENT(#42,#406);
#408=IFCRECTANGLEPROFILEDEF(.AREA.,$,$,0.25,20.);
#409=IFCCARTESIANPOINT((0.,0.,0.));
#410=IFCDIRECTION((0.,0.,1.));
#411=IFCDIRECTION((1.,0.,0.));
#412=IFCAXIS2PLACEMENT3D(#409,#410,#411);
#413=IFCDIRECTION((0.,0.,1.));
#414=IFCEXTRUDEDAREASOLID(#408,#412,#413,3.);
#415=IFCSHAPEREPRESENTATION(#10,'Body','SweptSolid',(#414));
#416=IFCPRODUCTDEFINITIONSHAPE($,$,(#415));
#417=IFCWALL('0OBizAMSf3DuOhGQE07ktc',$,'Level 3 West Wall',$,'EXTERNAL_WALL',#407,#416,'WALL-L3-WEST',.STANDARD.);
#418=IFCCARTESIANPOINT((4.333333333333333,10.,0.));
#419=IFCDIRECTION((0.,0.,1.));
#420=IFCDIRECTION((1.,0.,0.));
#421=IFCAXIS2PLACEMENT3D(#418,#419,#420);
#422=IFCLOCALPLACEMENT(#42,#421);
#423=IFCRECTANGLEPROFILEDEF(.AREA.,$,$,8.6666666666666661,20.);
#424=IFCCARTESIANPOINT((0.,0.,0.));
#425=IFCDIRECTION((0.,0.,1.));
#426=IFCDIRECTION((1.,0.,0.));
#427=IFCAXIS2PLACEMENT3D(#424,#425,#426);
#428=IFCDIRECTION((0.,0.,1.));
#429=IFCEXTRUDEDAREASOLID(#423,#427,#428,3.);
#430=IFCSHAPEREPRESENTATION(#10,'Body','SweptSolid',(#429));
#431=IFCPRODUCTDEFINITIONSHAPE($,$,(#430));
#432=IFCSPACE('38oH176er1BPh3UsrqEqeS',$,'Unit 301','Cadastral apartment unit 1 on level 3.','APARTMENT_UNIT',#422,#431,'Apartment Unit 301',.ELEMENT.,.INTERNAL.,$);
#433=IFCPROPERTYSINGLEVALUE('database_land_parcel_id',$,IFCTEXT('12506'),$);
#434=IFCPROPERTYSINGLEVALUE('storey',$,IFCINTEGER(3),$);
#435=IFCPROPERTYSINGLEVALUE('unit_index',$,IFCINTEGER(1),$);
#436=IFCPROPERTYSINGLEVALUE('local_bbox_m',$,IFCTEXT('[16.0, 16.0, 6.4, 24.666666666666664, 36.0, 9.4]'),$);
#437=IFCPROPERTYSINGLEVALUE('area_m2',$,IFCREAL(173.33333333333331),$);
#438=IFCPROPERTYSINGLEVALUE('volume_m3',$,IFCREAL(520.),$);
#439=IFCPROPERTYSET('22zhF5B5H5ahSz5f0nx1fy',$,'Pset_InfoBhoomiUnit',$,(#433,#434,#435,#436,#437,#438));
#440=IFCRELDEFINESBYPROPERTIES('3rfAP9qkj6GOI_YzuH85zJ',$,$,$,(#432),#439);
#441=IFCCARTESIANPOINT((13.,10.,0.));
#442=IFCDIRECTION((0.,0.,1.));
#443=IFCDIRECTION((1.,0.,0.));
#444=IFCAXIS2PLACEMENT3D(#441,#442,#443);
#445=IFCLOCALPLACEMENT(#42,#444);
#446=IFCRECTANGLEPROFILEDEF(.AREA.,$,$,8.6666666666666661,20.);
#447=IFCCARTESIANPOINT((0.,0.,0.));
#448=IFCDIRECTION((0.,0.,1.));
#449=IFCDIRECTION((1.,0.,0.));
#450=IFCAXIS2PLACEMENT3D(#447,#448,#449);
#451=IFCDIRECTION((0.,0.,1.));
#452=IFCEXTRUDEDAREASOLID(#446,#450,#451,3.);
#453=IFCSHAPEREPRESENTATION(#10,'Body','SweptSolid',(#452));
#454=IFCPRODUCTDEFINITIONSHAPE($,$,(#453));
#455=IFCSPACE('13dQGTxPb6m9A35TZN5ro7',$,'Unit 302','Cadastral apartment unit 2 on level 3.','APARTMENT_UNIT',#445,#454,'Apartment Unit 302',.ELEMENT.,.INTERNAL.,$);
#456=IFCPROPERTYSINGLEVALUE('database_land_parcel_id',$,IFCTEXT('12506'),$);
#457=IFCPROPERTYSINGLEVALUE('storey',$,IFCINTEGER(3),$);
#458=IFCPROPERTYSINGLEVALUE('unit_index',$,IFCINTEGER(2),$);
#459=IFCPROPERTYSINGLEVALUE('local_bbox_m',$,IFCTEXT('[24.666666666666664, 16.0, 6.4, 33.33333333333333, 36.0, 9.4]'),$);
#460=IFCPROPERTYSINGLEVALUE('area_m2',$,IFCREAL(173.33333333333331),$);
#461=IFCPROPERTYSINGLEVALUE('volume_m3',$,IFCREAL(520.),$);
#462=IFCPROPERTYSET('3TF$UAPwbCPvl2Bq8jIKUT',$,'Pset_InfoBhoomiUnit',$,(#456,#457,#458,#459,#460,#461));
#463=IFCRELDEFINESBYPROPERTIES('0rrfsefgb6VurKMWtPmOQl',$,$,$,(#455),#462);
#464=IFCCARTESIANPOINT((21.666666666666664,10.,0.));
#465=IFCDIRECTION((0.,0.,1.));
#466=IFCDIRECTION((1.,0.,0.));
#467=IFCAXIS2PLACEMENT3D(#464,#465,#466);
#468=IFCLOCALPLACEMENT(#42,#467);
#469=IFCRECTANGLEPROFILEDEF(.AREA.,$,$,8.6666666666666661,20.);
#470=IFCCARTESIANPOINT((0.,0.,0.));
#471=IFCDIRECTION((0.,0.,1.));
#472=IFCDIRECTION((1.,0.,0.));
#473=IFCAXIS2PLACEMENT3D(#470,#471,#472);
#474=IFCDIRECTION((0.,0.,1.));
#475=IFCEXTRUDEDAREASOLID(#469,#473,#474,3.);
#476=IFCSHAPEREPRESENTATION(#10,'Body','SweptSolid',(#475));
#477=IFCPRODUCTDEFINITIONSHAPE($,$,(#476));
#478=IFCSPACE('0qTMNOOy9EQwXgZQZ09FFj',$,'Unit 303','Cadastral apartment unit 3 on level 3.','APARTMENT_UNIT',#468,#477,'Apartment Unit 303',.ELEMENT.,.INTERNAL.,$);
#479=IFCPROPERTYSINGLEVALUE('database_land_parcel_id',$,IFCTEXT('12506'),$);
#480=IFCPROPERTYSINGLEVALUE('storey',$,IFCINTEGER(3),$);
#481=IFCPROPERTYSINGLEVALUE('unit_index',$,IFCINTEGER(3),$);
#482=IFCPROPERTYSINGLEVALUE('local_bbox_m',$,IFCTEXT('[33.33333333333333, 16.0, 6.4, 41.99999999999999, 36.0, 9.4]'),$);
#483=IFCPROPERTYSINGLEVALUE('area_m2',$,IFCREAL(173.33333333333331),$);
#484=IFCPROPERTYSINGLEVALUE('volume_m3',$,IFCREAL(520.),$);
#485=IFCPROPERTYSET('3vX7_oplHBAxRtyMDqiP6h',$,'Pset_InfoBhoomiUnit',$,(#479,#480,#481,#482,#483,#484));
#486=IFCRELDEFINESBYPROPERTIES('0vHsHFpYDETuBJCsif4wsH',$,$,$,(#478),#485);
#487=IFCRELCONTAINEDINSPATIALSTRUCTURE('1ur12JY_91gQ5SVNWy8292',$,$,$,(#357,#372,#387,#402,#417,#432,#455,#478),#43);
#488=IFCCARTESIANPOINT((13.,10.,-0.050000000000000003));
#489=IFCDIRECTION((0.,0.,1.));
#490=IFCDIRECTION((1.,0.,0.));
#491=IFCAXIS2PLACEMENT3D(#488,#489,#490);
#492=IFCLOCALPLACEMENT(#48,#491);
#493=IFCRECTANGLEPROFILEDEF(.AREA.,$,$,26.,20.);
#494=IFCCARTESIANPOINT((0.,0.,0.));
#495=IFCDIRECTION((0.,0.,1.));
#496=IFCDIRECTION((1.,0.,0.));
#497=IFCAXIS2PLACEMENT3D(#494,#495,#496);
#498=IFCDIRECTION((0.,0.,1.));
#499=IFCEXTRUDEDAREASOLID(#493,#497,#498,0.14999999999999999);
#500=IFCSHAPEREPRESENTATION(#10,'Body','SweptSolid',(#499));
#501=IFCPRODUCTDEFINITIONSHAPE($,$,(#500));
#502=IFCSLAB('3lHwhKKWL08OePBPyXTBF5',$,'Level 4 Floor Slab',$,'FLOOR_SLAB',#492,#501,'SLAB-L4',.FLOOR.);
#503=IFCCARTESIANPOINT((13.,20.125,0.));
#504=IFCDIRECTION((0.,0.,1.));
#505=IFCDIRECTION((1.,0.,0.));
#506=IFCAXIS2PLACEMENT3D(#503,#504,#505);
#507=IFCLOCALPLACEMENT(#48,#506);
#508=IFCRECTANGLEPROFILEDEF(.AREA.,$,$,26.,0.25);
#509=IFCCARTESIANPOINT((0.,0.,0.));
#510=IFCDIRECTION((0.,0.,1.));
#511=IFCDIRECTION((1.,0.,0.));
#512=IFCAXIS2PLACEMENT3D(#509,#510,#511);
#513=IFCDIRECTION((0.,0.,1.));
#514=IFCEXTRUDEDAREASOLID(#508,#512,#513,3.);
#515=IFCSHAPEREPRESENTATION(#10,'Body','SweptSolid',(#514));
#516=IFCPRODUCTDEFINITIONSHAPE($,$,(#515));
#517=IFCWALL('1dgDbxGoLBT9MqcNVBHhb$',$,'Level 4 North Wall',$,'EXTERNAL_WALL',#507,#516,'WALL-L4-NORTH',.STANDARD.);
#518=IFCCARTESIANPOINT((13.,-0.125,0.));
#519=IFCDIRECTION((0.,0.,1.));
#520=IFCDIRECTION((1.,0.,0.));
#521=IFCAXIS2PLACEMENT3D(#518,#519,#520);
#522=IFCLOCALPLACEMENT(#48,#521);
#523=IFCRECTANGLEPROFILEDEF(.AREA.,$,$,26.,0.25);
#524=IFCCARTESIANPOINT((0.,0.,0.));
#525=IFCDIRECTION((0.,0.,1.));
#526=IFCDIRECTION((1.,0.,0.));
#527=IFCAXIS2PLACEMENT3D(#524,#525,#526);
#528=IFCDIRECTION((0.,0.,1.));
#529=IFCEXTRUDEDAREASOLID(#523,#527,#528,3.);
#530=IFCSHAPEREPRESENTATION(#10,'Body','SweptSolid',(#529));
#531=IFCPRODUCTDEFINITIONSHAPE($,$,(#530));
#532=IFCWALL('0Hgjg$agT5q9MQ7PREws5L',$,'Level 4 South Wall',$,'EXTERNAL_WALL',#522,#531,'WALL-L4-SOUTH',.STANDARD.);
#533=IFCCARTESIANPOINT((26.125,10.,0.));
#534=IFCDIRECTION((0.,0.,1.));
#535=IFCDIRECTION((1.,0.,0.));
#536=IFCAXIS2PLACEMENT3D(#533,#534,#535);
#537=IFCLOCALPLACEMENT(#48,#536);
#538=IFCRECTANGLEPROFILEDEF(.AREA.,$,$,0.25,20.);
#539=IFCCARTESIANPOINT((0.,0.,0.));
#540=IFCDIRECTION((0.,0.,1.));
#541=IFCDIRECTION((1.,0.,0.));
#542=IFCAXIS2PLACEMENT3D(#539,#540,#541);
#543=IFCDIRECTION((0.,0.,1.));
#544=IFCEXTRUDEDAREASOLID(#538,#542,#543,3.);
#545=IFCSHAPEREPRESENTATION(#10,'Body','SweptSolid',(#544));
#546=IFCPRODUCTDEFINITIONSHAPE($,$,(#545));
#547=IFCWALL('0uKJo5AAD9fejUlvzNXL_6',$,'Level 4 East Wall',$,'EXTERNAL_WALL',#537,#546,'WALL-L4-EAST',.STANDARD.);
#548=IFCCARTESIANPOINT((-0.125,10.,0.));
#549=IFCDIRECTION((0.,0.,1.));
#550=IFCDIRECTION((1.,0.,0.));
#551=IFCAXIS2PLACEMENT3D(#548,#549,#550);
#552=IFCLOCALPLACEMENT(#48,#551);
#553=IFCRECTANGLEPROFILEDEF(.AREA.,$,$,0.25,20.);
#554=IFCCARTESIANPOINT((0.,0.,0.));
#555=IFCDIRECTION((0.,0.,1.));
#556=IFCDIRECTION((1.,0.,0.));
#557=IFCAXIS2PLACEMENT3D(#554,#555,#556);
#558=IFCDIRECTION((0.,0.,1.));
#559=IFCEXTRUDEDAREASOLID(#553,#557,#558,3.);
#560=IFCSHAPEREPRESENTATION(#10,'Body','SweptSolid',(#559));
#561=IFCPRODUCTDEFINITIONSHAPE($,$,(#560));
#562=IFCWALL('249xU9r$LAd8FtQDh$xge9',$,'Level 4 West Wall',$,'EXTERNAL_WALL',#552,#561,'WALL-L4-WEST',.STANDARD.);
#563=IFCCARTESIANPOINT((4.333333333333333,10.,0.));
#564=IFCDIRECTION((0.,0.,1.));
#565=IFCDIRECTION((1.,0.,0.));
#566=IFCAXIS2PLACEMENT3D(#563,#564,#565);
#567=IFCLOCALPLACEMENT(#48,#566);
#568=IFCRECTANGLEPROFILEDEF(.AREA.,$,$,8.6666666666666661,20.);
#569=IFCCARTESIANPOINT((0.,0.,0.));
#570=IFCDIRECTION((0.,0.,1.));
#571=IFCDIRECTION((1.,0.,0.));
#572=IFCAXIS2PLACEMENT3D(#569,#570,#571);
#573=IFCDIRECTION((0.,0.,1.));
#574=IFCEXTRUDEDAREASOLID(#568,#572,#573,3.);
#575=IFCSHAPEREPRESENTATION(#10,'Body','SweptSolid',(#574));
#576=IFCPRODUCTDEFINITIONSHAPE($,$,(#575));
#577=IFCSPACE('2iCP3X_1rF7vUB2l9JQbsg',$,'Unit 401','Cadastral apartment unit 1 on level 4.','APARTMENT_UNIT',#567,#576,'Apartment Unit 401',.ELEMENT.,.INTERNAL.,$);
#578=IFCPROPERTYSINGLEVALUE('database_land_parcel_id',$,IFCTEXT('12506'),$);
#579=IFCPROPERTYSINGLEVALUE('storey',$,IFCINTEGER(4),$);
#580=IFCPROPERTYSINGLEVALUE('unit_index',$,IFCINTEGER(1),$);
#581=IFCPROPERTYSINGLEVALUE('local_bbox_m',$,IFCTEXT('[16.0, 16.0, 9.600000000000001, 24.666666666666664, 36.0, 12.600000000000001]'),$);
#582=IFCPROPERTYSINGLEVALUE('area_m2',$,IFCREAL(173.33333333333331),$);
#583=IFCPROPERTYSINGLEVALUE('volume_m3',$,IFCREAL(520.),$);
#584=IFCPROPERTYSET('0UJiWDUyz8tvgoWW5hQ5Zy',$,'Pset_InfoBhoomiUnit',$,(#578,#579,#580,#581,#582,#583));
#585=IFCRELDEFINESBYPROPERTIES('1bNGVjWEn2leDPDSobCvZM',$,$,$,(#577),#584);
#586=IFCCARTESIANPOINT((13.,10.,0.));
#587=IFCDIRECTION((0.,0.,1.));
#588=IFCDIRECTION((1.,0.,0.));
#589=IFCAXIS2PLACEMENT3D(#586,#587,#588);
#590=IFCLOCALPLACEMENT(#48,#589);
#591=IFCRECTANGLEPROFILEDEF(.AREA.,$,$,8.6666666666666661,20.);
#592=IFCCARTESIANPOINT((0.,0.,0.));
#593=IFCDIRECTION((0.,0.,1.));
#594=IFCDIRECTION((1.,0.,0.));
#595=IFCAXIS2PLACEMENT3D(#592,#593,#594);
#596=IFCDIRECTION((0.,0.,1.));
#597=IFCEXTRUDEDAREASOLID(#591,#595,#596,3.);
#598=IFCSHAPEREPRESENTATION(#10,'Body','SweptSolid',(#597));
#599=IFCPRODUCTDEFINITIONSHAPE($,$,(#598));
#600=IFCSPACE('3Rn$8Vo8z1rfekgxQ_SDMD',$,'Unit 402','Cadastral apartment unit 2 on level 4.','APARTMENT_UNIT',#590,#599,'Apartment Unit 402',.ELEMENT.,.INTERNAL.,$);
#601=IFCPROPERTYSINGLEVALUE('database_land_parcel_id',$,IFCTEXT('12506'),$);
#602=IFCPROPERTYSINGLEVALUE('storey',$,IFCINTEGER(4),$);
#603=IFCPROPERTYSINGLEVALUE('unit_index',$,IFCINTEGER(2),$);
#604=IFCPROPERTYSINGLEVALUE('local_bbox_m',$,IFCTEXT('[24.666666666666664, 16.0, 9.600000000000001, 33.33333333333333, 36.0, 12.600000000000001]'),$);
#605=IFCPROPERTYSINGLEVALUE('area_m2',$,IFCREAL(173.33333333333331),$);
#606=IFCPROPERTYSINGLEVALUE('volume_m3',$,IFCREAL(520.),$);
#607=IFCPROPERTYSET('0N0L3JSULEjxeZkY4n05gl',$,'Pset_InfoBhoomiUnit',$,(#601,#602,#603,#604,#605,#606));
#608=IFCRELDEFINESBYPROPERTIES('0u_6q2IZX6bh09kh$FSlFC',$,$,$,(#600),#607);
#609=IFCCARTESIANPOINT((21.666666666666664,10.,0.));
#610=IFCDIRECTION((0.,0.,1.));
#611=IFCDIRECTION((1.,0.,0.));
#612=IFCAXIS2PLACEMENT3D(#609,#610,#611);
#613=IFCLOCALPLACEMENT(#48,#612);
#614=IFCRECTANGLEPROFILEDEF(.AREA.,$,$,8.6666666666666661,20.);
#615=IFCCARTESIANPOINT((0.,0.,0.));
#616=IFCDIRECTION((0.,0.,1.));
#617=IFCDIRECTION((1.,0.,0.));
#618=IFCAXIS2PLACEMENT3D(#615,#616,#617);
#619=IFCDIRECTION((0.,0.,1.));
#620=IFCEXTRUDEDAREASOLID(#614,#618,#619,3.);
#621=IFCSHAPEREPRESENTATION(#10,'Body','SweptSolid',(#620));
#622=IFCPRODUCTDEFINITIONSHAPE($,$,(#621));
#623=IFCSPACE('2r9yscjDHF4B9pDZVbKuK9',$,'Unit 403','Cadastral apartment unit 3 on level 4.','APARTMENT_UNIT',#613,#622,'Apartment Unit 403',.ELEMENT.,.INTERNAL.,$);
#624=IFCPROPERTYSINGLEVALUE('database_land_parcel_id',$,IFCTEXT('12506'),$);
#625=IFCPROPERTYSINGLEVALUE('storey',$,IFCINTEGER(4),$);
#626=IFCPROPERTYSINGLEVALUE('unit_index',$,IFCINTEGER(3),$);
#627=IFCPROPERTYSINGLEVALUE('local_bbox_m',$,IFCTEXT('[33.33333333333333, 16.0, 9.600000000000001, 41.99999999999999, 36.0, 12.600000000000001]'),$);
#628=IFCPROPERTYSINGLEVALUE('area_m2',$,IFCREAL(173.33333333333331),$);
#629=IFCPROPERTYSINGLEVALUE('volume_m3',$,IFCREAL(520.),$);
#630=IFCPROPERTYSET('3TdNpLfvX6BhL6HrT$pt_M',$,'Pset_InfoBhoomiUnit',$,(#624,#625,#626,#627,#628,#629));
#631=IFCRELDEFINESBYPROPERTIES('0F7IYSzQfDyBsTQsvl$6Ov',$,$,$,(#623),#630);
#632=IFCRELCONTAINEDINSPATIALSTRUCTURE('3meIliDYrAqfU6KI7WArRz',$,$,$,(#502,#517,#532,#547,#562,#577,#600,#623),#49);
#633=IFCPROPERTYSINGLEVALUE('database_land_parcel_id',$,IFCTEXT('12506'),$);
#634=IFCPROPERTYSINGLEVALUE('origin_latitude_wgs84',$,IFCREAL(6.8144799999999996),$);
#635=IFCPROPERTYSINGLEVALUE('origin_longitude_wgs84',$,IFCREAL(81.001710000000003),$);
#636=IFCPROPERTYSINGLEVALUE('origin_height_m',$,IFCREAL(10.),$);
#637=IFCPROPERTYSINGLEVALUE('local_coordinate_system',$,IFCTEXT('metres, east-north-up'),$);
#638=IFCPROPERTYSINGLEVALUE('note',$,IFCTEXT('The land parcel is referenced by database ID only; no parcel geometry is included.'),$);
#639=IFCPROPERTYSET('00Ce0pbSvDBRyENaKohq_2',$,'Pset_InfoBhoomiGeoreferencing',$,(#633,#634,#635,#636,#637,#638));
#640=IFCRELDEFINESBYPROPERTIES('1vXvWADbD9MRJr_jKaBhBI',$,$,$,(#19),#639);
#641=IFCPROPERTYSINGLEVALUE('database_land_parcel_id',$,IFCTEXT('12506'),$);
#642=IFCPROPERTYSINGLEVALUE('storeys',$,IFCINTEGER(4),$);
#643=IFCPROPERTYSINGLEVALUE('units_per_storey',$,IFCINTEGER(3),$);
#644=IFCPROPERTYSINGLEVALUE('footprint_width_m',$,IFCREAL(26.),$);
#645=IFCPROPERTYSINGLEVALUE('footprint_length_m',$,IFCREAL(20.),$);
#646=IFCPROPERTYSINGLEVALUE('local_origin_east_m',$,IFCREAL(16.),$);
#647=IFCPROPERTYSINGLEVALUE('local_origin_north_m',$,IFCREAL(16.),$);
#648=IFCPROPERTYSINGLEVALUE('footprint_local_vertices_m',$,IFCTEXT('[[16.0, 16.0], [42.0, 16.0], [42.0, 36.0], [16.0, 36.0], [16.0, 16.0]]'),$);
#649=IFCPROPERTYSINGLEVALUE('footprint_wgs84_vertices',$,IFCTEXT('[{"local_m": {"east": 16.0, "north": 16.0, "height": 10.0}, "wgs84": {"latitude": 6.8146247, "longitude": 81.00185475, "height_m": 10.0}}, {"local_m": {"east": 42.0, "north": 16.0, "height": 10.0}, "wgs84": {"latitude": 6.8146247, "longitude": 81.00208998, "height_m": 10.0}}, {"local_m": {"east": 42.0, "north": 36.0, "height": 10.0}, "wgs84": {"latitude": 6.81480557, "longitude": 81.00208998, "height_m": 10.0}}, {"local_m": {"east": 16.0, "north": 36.0, "height": 10.0}, "wgs84": {"latitude": 6.81480557, "longitude": 81.00185475, "height_m": 10.0}}, {"local_m": {"east": 16.0, "north": 16.0, "height": 10.0}, "wgs84": {"latitude": 6.8146247, "longitude": 81.00185475, "height_m": 10.0}}]'),$);
#650=IFCPROPERTYSET('3drxpd1s5FTudxnmJrw8SQ',$,'Pset_InfoBhoomiBuilding',$,(#641,#642,#643,#644,#645,#646,#647,#648,#649));
#651=IFCRELDEFINESBYPROPERTIES('10j_Y_1F1DKB4Dc1XtP7yz',$,$,$,(#25),#650);
ENDSEC;
END-ISO-10303-21;
